<?xml version="1.0" encoding="UTF-8" standalone="no"?><svg xmlns="http://www.w3.org/2000/svg" xmlns:xlink="http://www.w3.org/1999/xlink" contentScriptType="application/ecmascript" contentStyleType="text/css" height="171px" preserveAspectRatio="none" style="width:223px;height:171px;background:#FFFFFF;" version="1.1" viewBox="0 0 223 171" width="223px" zoomAndPan="magnify"><defs><filter height="300%" id="ffkdsbqlekc3m" width="300%" x="-1" y="-1"><feGaussianBlur result="blurOut" stdDeviation="2.0"/><feColorMatrix in="blurOut" result="blurOut2" type="matrix" values="0 0 0 0 0 0 0 0 0 0 0 0 0 0 0 0 0 0 .4 0"/><feOffset dx="4.0" dy="4.0" in="blurOut2" result="blurOut3"/><feBlend in="SourceGraphic" in2="blurOut3" mode="normal"/></filter></defs><g><polygon fill="#FFFFFF" filter="url(#ffkdsbqlekc3m)" points="16,6,63.5,6,70.5,16,206,16,206,164,16,164,16,6" style="stroke:#000000;stroke-width:1.5;"/><line style="stroke:#000000;stroke-width:1.5;" x1="16" x2="70.5" y1="16" y2="16"/><!--MD5=[cd869b34d688661372d713ff53dbac1f]
class account--><rect codeLine="4" fill="#FEFECE" filter="url(#ffkdsbqlekc3m)" height="125.7305" id="account" style="stroke:#A80036;stroke-width:1.5;" width="158" x="32" y="22"/><ellipse cx="84.75" cy="38" fill="#ADD1B2" rx="11" ry="11" style="stroke:#A80036;stroke-width:1.0;"/><path d="M88.3643,44.5 L80.6445,44.5 L80.6445,32.1069 L88.3643,32.1069 L88.3643,34.2651 L83.0933,34.2651 L83.0933,36.938 L87.8662,36.938 L87.8662,39.0962 L83.0933,39.0962 L83.0933,42.3418 L88.3643,42.3418 Z " fill="#000000"/><text fill="#000000" font-family="sans-serif" font-size="12" lengthAdjust="spacing" textLength="44" x="105.25" y="42.5352">account</text><line style="stroke:#A80036;stroke-width:1.5;" x1="33" x2="189" y1="54" y2="54"/><ellipse cx="43" cy="65" fill="#000000" rx="3" ry="3" style="stroke:#000000;stroke-width:1.0;"/><text fill="#000000" font-family="sans-serif" font-size="11" lengthAdjust="spacing" textLength="10" x="52" y="68.6348">id</text><ellipse cx="43" cy="77.9551" fill="#000000" rx="3" ry="3" style="stroke:#000000;stroke-width:1.0;"/><text fill="#000000" font-family="sans-serif" font-size="11" lengthAdjust="spacing" textLength="40" x="52" y="81.5898">version</text><ellipse cx="43" cy="90.9102" fill="#000000" rx="3" ry="3" style="stroke:#000000;stroke-width:1.0;"/><text fill="#000000" font-family="sans-serif" font-size="11" lengthAdjust="spacing" textLength="29" x="52" y="94.5449">name</text><ellipse cx="43" cy="103.8652" fill="#000000" rx="3" ry="3" style="stroke:#000000;stroke-width:1.0;"/><text fill="#000000" font-family="sans-serif" font-size="11" lengthAdjust="spacing" textLength="132" x="52" y="107.5">state {ACTIVE, INACTIVE}</text><ellipse cx="43" cy="116.8203" fill="#000000" rx="3" ry="3" style="stroke:#000000;stroke-width:1.0;"/><text fill="#000000" font-family="sans-serif" font-size="11" lengthAdjust="spacing" textLength="62" x="52" y="120.4551">create_time</text><ellipse cx="43" cy="129.7754" fill="#000000" rx="3" ry="3" style="stroke:#000000;stroke-width:1.0;"/><text fill="#000000" font-family="sans-serif" font-size="11" lengthAdjust="spacing" textLength="72" x="52" y="133.4102">last_modified</text><line style="stroke:#A80036;stroke-width:1.5;" x1="33" x2="189" y1="139.7305" y2="139.7305"/><!--MD5=[a1882af9ee41929f1df829a3edf11ba6]
@startuml

package {

    entity account {
        * id
        * version
        * name
        * state {ACTIVE, INACTIVE}
        * create_time
        * last_modified
    }

}

@enduml

PlantUML version 1.2021.11(Sat Oct 02 14:26:11 BST 2021)
(GPL source distribution)
Java Runtime: OpenJDK Runtime Environment
JVM: OpenJDK 64-Bit Server VM
Default Encoding: UTF-8
Language: en
Country: GB
--></g></svg>